Coordinates
version=1
nRows=13
nColumns=38
inDegrees=no

Units are S.I. units (second, meters, Newtons, ...)
If the header above contains a line with 'inDegrees', this indicates whether rotational values are in degrees (yes) or radians (no).

endheader
time	pelvis_tilt	pelvis_list	pelvis_rotation	pelvis_tx	pelvis_ty	pelvis_tz	hip_flexion_r	hip_adduction_r	hip_rotation_r	knee_angle_r	ankle_angle_r	subtalar_angle_r	mtp_angle_r	hip_flexion_l	hip_adduction_l	hip_rotation_l	knee_angle_l	ankle_angle_l	subtalar_angle_l	mtp_angle_l	lumbar_extension	lumbar_bending	lumbar_rotation	arm_flex_r	arm_add_r	arm_rot_r	elbow_flex_r	pro_sup_r	wrist_flex_r	wrist_dev_r	arm_flex_l	arm_add_l	arm_rot_l	elbow_flex_l	pro_sup_l	wrist_flex_l	wrist_dev_l
0.77	-0.0565336	-0.0518897	0.10306	0.922043	0.982209	-0.321523	0.623562	0.0625221	-0.183153	-0.330376	0.191631	-0.0349027	0.000146859	-0.271723	-0.0835376	-0.00569071	-0.930377	-0.346012	-0.0763542	0.000193719	-0.182515	0.079905	-0.237322	-0.956807	-0.187764	-0.176389	1.76173	1.5742	0.0946032	0.0292018	0.0635167	-0.45754	0.118283	2.37387	2.18283	0.0811501	-0.0356415
0.78	-0.0471671	-0.0535582	0.0932371	0.924584	0.975962	-0.320514	0.599543	0.0693232	-0.201942	-0.346972	0.132123	-0.0349027	0.000146859	-0.254542	-0.108203	-0.0409495	-1.05049	-0.344551	-0.0763542	0.000193719	-0.186472	0.0845742	-0.217101	-0.953714	-0.20075	-0.177359	1.78376	1.57397	0.0946032	0.0292018	0.0276343	-0.45584	0.115479	2.34995	2.16284	0.0811501	-0.0356415
0.79	-0.0375168	-0.0579177	0.0818722	0.926188	0.968988	-0.319331	0.580376	0.0798955	-0.215111	-0.379126	0.0861692	-0.0349027	0.000146859	-0.232392	-0.132006	-0.0699763	-1.16956	-0.340548	-0.0763542	0.000193719	-0.193493	0.0907015	-0.193177	-0.943061	-0.215267	-0.176488	1.80108	1.57419	0.0946032	0.0292018	-0.00690461	-0.453614	0.111115	2.32476	2.14675	0.0811501	-0.0356415
0.8	-0.0275831	-0.0649172	0.0690184	0.926911	0.961398	-0.317962	0.565761	0.0941986	-0.2226	-0.426231	0.0541422	-0.0349027	0.000146859	-0.205218	-0.15478	-0.0926293	-1.28746	-0.334	-0.0763542	0.000193719	-0.203579	0.0982412	-0.165642	-0.924763	-0.231318	-0.173715	1.81361	1.57489	0.0946032	0.0292018	-0.0401457	-0.450787	0.105127	2.29832	2.13477	0.0811501	-0.0356415
0.81	-0.0173464	-0.0743651	0.0548516	0.926821	0.953524	-0.316458	0.554795	0.11204	-0.224338	-0.486502	0.0369356	-0.0349027	0.000146859	-0.172883	-0.176022	-0.10856	-1.40377	-0.32491	-0.0763542	0.000193719	-0.216708	0.107035	-0.134807	-0.89861	-0.248913	-0.168854	1.82113	1.5761	0.0946032	0.0292018	-0.072201	-0.447182	0.0973797	2.27065	2.12749	0.0811501	-0.0356415
0.82	-0.00678875	-0.0858593	0.0397222	0.925983	0.945911	-0.314894	0.545815	0.132931	-0.220387	-0.556665	0.0355835	-0.0349027	0.000146859	-0.135185	-0.194828	-0.117304	-1.51766	-0.313298	-0.0763542	0.000193719	-0.232757	0.11674	-0.101308	-0.864336	-0.268073	-0.161588	1.82333	1.5779	0.0946032	0.0292018	-0.103268	-0.442521	0.0876922	2.24183	2.1258	0.0811501	-0.0356415
0.83	0.00402097	-0.09873	0.0241591	0.924429	0.939045	-0.313315	0.536543	0.155971	-0.211111	-0.632087	0.0504973	-0.0349027	0.000146859	-0.0918761	-0.20999	-0.118527	-1.62778	-0.299206	-0.0763542	0.000193719	-0.251368	0.126805	-0.0661424	-0.821774	-0.288808	-0.15152	1.82003	1.58035	0.0946032	0.0292018	-0.133638	-0.43647	0.075899	2.21197	2.13062	0.0811501	-0.0356415
0.84	0.0148532	-0.11202	0.00881195	0.92218	0.93308	-0.311814	0.524505	0.179799	-0.197226	-0.70737	0.0807917	-0.0349027	0.000146859	-0.0426958	-0.220195	-0.112312	-1.7324	-0.282706	-0.0763542	0.000193719	-0.271829	0.136481	-0.0305877	-0.771066	-0.311074	-0.138299	1.81137	1.58344	0.0946032	0.0292018	-0.163667	-0.428716	0.0619342	2.18123	2.14268	0.0811501	-0.0356415
0.85	0.0252271	-0.124493	-0.00566056	0.919301	0.927946	-0.310604	0.507545	0.202692	-0.179712	-0.777198	0.124076	-0.0349027	0.000146859	0.0125483	-0.224303	-0.0994119	-1.82943	-0.263941	-0.0763542	0.000193719	-0.293051	0.144905	0.0039961	-0.712851	-0.334699	-0.121787	1.79804	1.58696	0.0946032	0.0292018	-0.193699	-0.419041	0.0459173	2.14986	2.16227	0.0811501	-0.0356415
0.86	0.0345614	-0.134839	-0.0187583	0.915927	0.923612	-0.309872	0.484282	0.222752	-0.159603	-0.837116	0.176747	-0.0349027	0.000146859	0.0739108	-0.22161	-0.0813676	-1.9167	-0.243184	-0.0763542	0.000193719	-0.313614	0.151164	0.0364277	-0.648359	-0.359321	-0.102198	1.78144	1.59052	0.0946032	0.0292018	-0.223976	-0.407405	0.028207	2.11816	2.18915	0.0811501	-0.0356415
0.87	0.0421755	-0.141864	-0.0302282	0.912243	0.920143	-0.309635	0.454208	0.238187	-0.137833	-0.883985	0.234522	-0.0349027	0.000146859	0.14118	-0.212071	-0.0603996	-1.99207	-0.220903	-0.0763542	0.000193719	-0.332014	0.154399	0.0659131	-0.57935	-0.384331	-0.0801651	1.76359	1.59352	0.0946032	0.0292018	-0.254578	-0.394012	0.00938249	2.08656	2.22232	0.0811501	-0.0356415
0.88	0.0474539	-0.144677	-0.0400677	0.908471	0.917641	-0.309784	0.417563	0.24756	-0.115174	-0.916023	0.29292	-0.0349027	0.000146859	0.213798	-0.196388	-0.0390677	-2.05372	-0.19778	-0.0763542	0.000193719	-0.346906	0.153871	0.0921079	-0.507904	-0.408876	-0.0566696	1.74692	1.59526	0.0946032	0.0292018	-0.285454	-0.379362	-0.00985495	2.05563	2.25993	0.0811501	-0.0356415
0.89	0.0499827	-0.14274	-0.0484506	0.90483	0.916165	-0.310177	0.37504	0.249975	-0.0922686	-0.93256	0.347583	-0.0349027	0.000146859	0.290814	-0.175942	-0.0198258	-2.10018	-0.174617	-0.0763542	0.000193719	-0.357318	0.149028	0.115043	-0.436126	-0.43191	-0.0328772	1.73391	1.5951	0.0946032	0.0292018	-0.31652	-0.364243	-0.0288244	2.02619	2.29925	0.0811501	-0.0356415
